<svg width="46" height="32" viewBox="0 0 46 32" fill="none" xmlns="http://www.w3.org/2000/svg">
<path d="M30.6028 16.2311L45.8248 25.8541V6.20508L30.6028 16.2311Z" fill="white"/>
<path d="M0.671875 6.20508V25.8581L15.8939 16.2351L0.671875 6.20508Z" fill="white"/>
<path d="M43.0038 0.478027H3.49684C2.82817 0.482828 2.18352 0.727881 1.68051 1.16847C1.1775 1.60906 0.849671 2.21582 0.756836 2.87803L23.2488 17.699L45.7408 2.87803C45.6481 2.21633 45.3207 1.60997 44.8183 1.16945C44.3159 0.728923 43.672 0.483545 43.0038 0.478027Z" fill="white"/>
<path d="M28.018 17.936L24.025 20.566C23.7943 20.7169 23.5246 20.7973 23.249 20.7973C22.9733 20.7973 22.7036 20.7169 22.473 20.566L18.48 17.933L0.761963 29.14C0.85774 29.7979 1.18589 30.3998 1.68701 30.8367C2.18814 31.2736 2.82913 31.5167 3.49396 31.522H43.004C43.6691 31.5172 44.3106 31.2743 44.8122 30.8373C45.3137 30.4004 45.6421 29.7982 45.738 29.14L28.018 17.936Z" fill="white"/>
</svg>
